<?xml version="1.0" standalone="no"?>
<!DOCTYPE svg PUBLIC "-//W3C//DTD SVG 20010904//EN"
 "http://www.w3.org/TR/2001/REC-SVG-20010904/DTD/svg10.dtd">
<svg version="1.0" xmlns="http://www.w3.org/2000/svg"
 width="192.000000pt" height="192.000000pt" viewBox="0 0 192.000000 192.000000"
 preserveAspectRatio="xMidYMid meet">

<g transform="translate(0.000000,192.000000) scale(0.100000,-0.100000)"
fill="#000000" stroke="none">
<path d="M780 1905 c0 -12 -13 -15 -60 -15 -47 0 -60 -3 -60 -15 0 -11 -12
-15 -45 -15 -33 0 -45 -4 -45 -15 0 -10 -10 -15 -30 -15 -20 0 -30 -5 -30 -15
0 -10 -10 -15 -30 -15 -20 0 -30 -5 -30 -15 0 -8 -7 -15 -15 -15 -8 0 -15 -7
-15 -15 0 -8 -7 -15 -15 -15 -8 0 -15 -7 -15 -15 0 -10 -10 -15 -30 -15 -20 0
-30 -5 -30 -15 0 -8 -7 -15 -15 -15 -8 0 -15 -7 -15 -15 0 -8 -7 -15 -15 -15
-8 0 -15 -7 -15 -15 0 -8 -7 -15 -15 -15 -8 0 -15 -7 -15 -15 0 -8 -7 -15 -15
-15 -10 0 -15 -10 -15 -30 0 -20 -5 -30 -15 -30 -8 0 -15 -7 -15 -15 0 -8 -7
-15 -15 -15 -8 0 -15 -7 -15 -15 0 -8 -7 -15 -15 -15 -10 0 -15 -10 -15 -30 0
-20 -5 -30 -15 -30 -10 0 -15 -10 -15 -30 0 -20 -5 -30 -15 -30 -11 0 -15 -12
-15 -45 0 -33 -4 -45 -15 -45 -12 0 -15 -13 -15 -60 0 -47 -3 -60 -15 -60 -13
0 -15 -27 -15 -180 0 -153 2 -180 15 -180 12 0 15 -13 15 -60 0 -47 3 -60 15
-60 11 0 15 -12 15 -45 0 -33 4 -45 15 -45 10 0 15 -10 15 -30 0 -20 5 -30 15
-30 10 0 15 -10 15 -30 0 -20 5 -30 15 -30 8 0 15 -7 15 -15 0 -8 7 -15 15
-15 8 0 15 -7 15 -15 0 -8 7 -15 15 -15 10 0 15 -10 15 -30 0 -20 5 -30 15
-30 8 0 15 -7 15 -15 0 -8 7 -15 15 -15 8 0 15 -7 15 -15 0 -8 7 -15 15 -15 8
0 15 -7 15 -15 0 -8 7 -15 15 -15 8 0 15 -7 15 -15 0 -10 10 -15 30 -15 20 0
30 -5 30 -15 0 -8 7 -15 15 -15 8 0 15 -7 15 -15 0 -8 7 -15 15 -15 8 0 15 -7
15 -15 0 -10 10 -15 30 -15 20 0 30 -5 30 -15 0 -12 13 -15 60 -15 47 0 60 3
60 15 0 8 7 15 15 15 12 0 15 17 15 90 l0 90 -75 0 c-60 0 -75 3 -75 15 0 10
-10 15 -30 15 -20 0 -30 5 -30 15 0 8 -7 15 -15 15 -8 0 -15 7 -15 15 0 8 -7
15 -15 15 -8 0 -15 7 -15 15 0 8 -7 15 -15 15 -10 0 -15 10 -15 30 0 20 -5 30
-15 30 -10 0 -15 10 -15 30 0 20 -5 30 -15 30 -10 0 -15 10 -15 30 0 20 5 30
15 30 8 0 15 7 15 15 0 8 -7 15 -15 15 -8 0 -15 -7 -15 -15 0 -8 -7 -15 -15
-15 -8 0 -15 7 -15 15 0 10 -10 15 -30 15 -20 0 -30 5 -30 15 0 8 7 15 15 15
8 0 15 7 15 15 0 10 10 15 30 15 20 0 30 -5 30 -15 0 -10 10 -15 30 -15 20 0
30 -5 30 -15 0 -8 7 -15 15 -15 8 0 15 -7 15 -15 0 -8 7 -15 15 -15 8 0 15 -7
15 -15 0 -8 7 -15 15 -15 8 0 15 -7 15 -15 0 -8 7 -15 15 -15 8 0 15 -7 15
-15 0 -10 10 -15 30 -15 20 0 30 -5 30 -15 0 -11 12 -15 45 -15 33 0 45 4 45
15 0 8 7 15 15 15 8 0 15 7 15 15 0 8 7 15 15 15 8 0 15 7 15 15 0 8 7 15 15
15 10 0 15 10 15 30 0 27 -3 30 -30 30 -20 0 -30 5 -30 15 0 8 -7 15 -15 15
-8 0 -15 7 -15 15 0 10 -10 15 -30 15 -20 0 -30 5 -30 15 0 8 -7 15 -15 15
-10 0 -15 10 -15 30 0 20 -5 30 -15 30 -8 0 -15 7 -15 15 0 8 -7 15 -15 15
-10 0 -15 10 -15 30 0 20 -5 30 -15 30 -10 0 -15 10 -15 30 0 20 -5 30 -15 30
-12 0 -15 18 -15 105 0 87 3 105 15 105 11 0 15 12 15 45 0 33 4 45 15 45 10
0 15 10 15 30 0 20 -5 30 -15 30 -10 0 -15 10 -15 30 0 20 -5 30 -15 30 -12 0
-15 17 -15 90 0 73 3 90 15 90 8 0 15 7 15 15 0 11 12 15 45 15 33 0 45 -4 45
-15 0 -11 12 -15 45 -15 33 0 45 -4 45 -15 0 -8 7 -15 15 -15 8 0 15 -7 15
-15 0 -8 7 -15 15 -15 8 0 15 -7 15 -15 0 -8 7 -15 15 -15 8 0 15 -7 15 -15 0
-8 7 -15 15 -15 8 0 15 -7 15 -15 0 -11 12 -15 45 -15 33 0 45 4 45 15 0 12
18 15 105 15 87 0 105 -3 105 -15 0 -11 12 -15 45 -15 33 0 45 4 45 15 0 8 7
15 15 15 8 0 15 7 15 15 0 8 7 15 15 15 8 0 15 7 15 15 0 8 7 15 15 15 8 0 15
7 15 15 0 10 10 15 30 15 20 0 30 5 30 15 0 11 12 15 45 15 33 0 45 4 45 15 0
11 12 15 45 15 33 0 45 -4 45 -15 0 -8 7 -15 15 -15 12 0 15 -17 15 -90 0 -73
-3 -90 -15 -90 -10 0 -15 -10 -15 -30 0 -20 -5 -30 -15 -30 -10 0 -15 -10 -15
-30 0 -20 5 -30 15 -30 11 0 15 -12 15 -45 0 -33 4 -45 15 -45 12 0 15 -18 15
-105 0 -87 -3 -105 -15 -105 -10 0 -15 -10 -15 -30 0 -20 -5 -30 -15 -30 -10
0 -15 -10 -15 -30 0 -20 -5 -30 -15 -30 -8 0 -15 -7 -15 -15 0 -8 -7 -15 -15
-15 -10 0 -15 -10 -15 -30 0 -20 -5 -30 -15 -30 -8 0 -15 -7 -15 -15 0 -10
-10 -15 -30 -15 -20 0 -30 -5 -30 -15 0 -10 -10 -15 -30 -15 -20 0 -30 -5 -30
-15 0 -10 -10 -15 -30 -15 -27 0 -30 -3 -30 -30 0 -20 5 -30 15 -30 8 0 15 -7
15 -15 0 -8 7 -15 15 -15 12 0 15 -13 15 -60 0 -47 3 -60 15 -60 13 0 15 -23
15 -150 0 -127 2 -150 15 -150 8 0 15 -7 15 -15 0 -12 13 -15 60 -15 47 0 60
3 60 15 0 10 10 15 30 15 20 0 30 5 30 15 0 8 7 15 15 15 8 0 15 7 15 15 0 8
7 15 15 15 8 0 15 7 15 15 0 10 10 15 30 15 20 0 30 5 30 15 0 8 7 15 15 15 8
0 15 7 15 15 0 8 7 15 15 15 8 0 15 7 15 15 0 8 7 15 15 15 8 0 15 7 15 15 0
8 7 15 15 15 10 0 15 10 15 30 0 20 5 30 15 30 8 0 15 7 15 15 0 8 7 15 15 15
8 0 15 7 15 15 0 8 7 15 15 15 10 0 15 10 15 30 0 20 5 30 15 30 10 0 15 10
15 30 0 20 5 30 15 30 11 0 15 12 15 45 0 33 4 45 15 45 12 0 15 13 15 60 0
47 3 60 15 60 13 0 15 27 15 180 0 153 -2 180 -15 180 -12 0 -15 13 -15 60 0
47 -3 60 -15 60 -11 0 -15 12 -15 45 0 33 -4 45 -15 45 -10 0 -15 10 -15 30 0
20 -5 30 -15 30 -10 0 -15 10 -15 30 0 20 -5 30 -15 30 -8 0 -15 7 -15 15 0 8
-7 15 -15 15 -8 0 -15 7 -15 15 0 8 -7 15 -15 15 -10 0 -15 10 -15 30 0 20 -5
30 -15 30 -8 0 -15 7 -15 15 0 8 -7 15 -15 15 -8 0 -15 7 -15 15 0 8 -7 15
-15 15 -8 0 -15 7 -15 15 0 8 -7 15 -15 15 -8 0 -15 7 -15 15 0 10 -10 15 -30
15 -20 0 -30 5 -30 15 0 8 -7 15 -15 15 -8 0 -15 7 -15 15 0 8 -7 15 -15 15
-8 0 -15 7 -15 15 0 10 -10 15 -30 15 -20 0 -30 5 -30 15 0 10 -10 15 -30 15
-20 0 -30 5 -30 15 0 11 -12 15 -45 15 -33 0 -45 4 -45 15 0 12 -13 15 -60 15
-47 0 -60 3 -60 15 0 13 -27 15 -180 15 -153 0 -180 -2 -180 -15z"/>
<path d="M360 555 c0 -8 7 -15 15 -15 8 0 15 7 15 15 0 8 -7 15 -15 15 -8 0
-15 -7 -15 -15z"/>
<path d="M420 495 c0 -8 7 -15 15 -15 8 0 15 7 15 15 0 8 -7 15 -15 15 -8 0
-15 -7 -15 -15z"/>
<path d="M480 435 c0 -8 7 -15 15 -15 8 0 15 7 15 15 0 8 -7 15 -15 15 -8 0
-15 -7 -15 -15z"/>
<path d="M570 405 c0 -8 7 -15 15 -15 8 0 15 7 15 15 0 8 -7 15 -15 15 -8 0
-15 -7 -15 -15z"/>
</g>
</svg>
